<svg viewbox="0 0 76.879997 77.419998" xmlns="http://www.w3.org/2000/svg"><path d="M 24.999999,7.6293944e-8 C 11.199999,7.6293944e-8 0.00999916,11.19 -8.392334e-7,25 V 52.43 C -8.392334e-7,66.24 11.199999,77.42 24.999999,77.42 h 26.91 c 13.81,0 24.97,-11.18 24.97,-24.99 V 34.71 c 0,-2.76 -2.21,-5 -4.97,-5 h -4.22 -0.09 c -2.64,0 -4.79,-2.06 -4.97,-4.65 l -0.03,-0.06 c 0,-13.81 -11.19,-24.999999923706042 -25,-24.999999923706042 z M 24.379999,20.28 h 14.16 c 2.65,0 4.81,2.15 4.81,4.81 0,2.65 -2.16,4.81 -4.81,4.81 h -14.16 c -2.65,0 -4.81,-2.16 -4.81,-4.81 0,-2.66 2.16,-4.81 4.81,-4.81 z m -0.03,28.15 h 28.41 c 2.51,0 4.56,2.02 4.56,4.53 0,2.51 -2.05,4.57 -4.56,4.57 h -28.41 c -2.51,0 -4.53,-2.06 -4.53,-4.57 0,-2.51 2.02,-4.53 4.53,-4.53 z"/></svg>